<?xml version="1.0" encoding="UTF-8"?>
<svg width="26px" height="26px" viewBox="0 0 26 26" version="1.1" xmlns="http://www.w3.org/2000/svg" xmlns:xlink="http://www.w3.org/1999/xlink">
    <!-- Generator: Sketch 48.2 (47327) - http://www.bohemiancoding.com/sketch -->
    <title>noun_1126722_cc</title>
    <desc>Created with Sketch.</desc>
    <defs></defs>
    <g id="Page-1" stroke="none" stroke-width="1" fill="none" fill-rule="evenodd">
        <g id="noun_1126722_cc" transform="translate(-3.000000, -3.000000)">
            <rect id="Rectangle-path" x="0" y="0" width="32" height="32"></rect>
            <path d="M27.98,2.9902 C27.942737,2.99137758 27.905569,2.99463787 27.86867,2.9999656 L19.99957,2.9999656 C19.6389341,2.99486531 19.3034886,3.1843409 19.1216823,3.49583845 C18.9398759,3.807336 18.9398759,4.1925952 19.1216823,4.50409275 C19.3034886,4.8155903 19.6389341,5.00506589 19.99957,4.9999656 L25.58547,4.9999656 L13.29247,17.2929656 C13.0318068,17.5439127 12.9270169,17.9160834 13.0184509,18.2661685 C13.1098849,18.6162536 13.383282,18.8896507 13.7333671,18.9810847 C14.0834522,19.0725187 14.4556229,18.9677288 14.70657,18.7070656 L26.99957,6.4140656 L26.99957,11.9999656 C26.9944697,12.3606015 27.1839453,12.696047 27.4954428,12.8778533 C27.8069404,13.0596597 28.1921996,13.0596597 28.5036972,12.8778533 C28.8151947,12.696047 29.0046703,12.3606015 28.99957,11.9999656 L28.99957,4.1269656 C29.0398728,3.83556247 28.9498352,3.5411946 28.7534172,3.32219672 C28.5569992,3.10319884 28.2741247,2.98178528 27.98007,2.9902656 L27.98,2.9902 Z" id="Shape" fill="#000000"></path>
            <path d="M14,7 C11.5042,7 9.6181,6.9964203 8.1152,7.16602 C6.6124,7.33562 5.4094,7.69314 4.5488,8.55472 C3.6882,9.4163 3.3346,10.61702 3.166,12.11922 C2.99734,13.62132 2.99998,15.50722 2.99998,18.00012 C2.99998,20.49362 2.99791,22.38012 3.1699,23.88292 C3.34189,25.38572 3.7038,26.58722 4.5664,27.44742 C5.42899,28.30761 6.6298,28.66452 8.1309,28.83412 C9.632,29.00372 11.514,29.00014 14,29.00014 C16.4863,29.00014 18.3678,29.00124 19.8691,28.83022 C21.3704,28.65916 22.5735,28.30064 23.4355,27.43962 C24.2975,26.5786 24.6561,25.37722 24.8281,23.87512 C25.0001,22.37302 24.99998,20.48932 24.99998,18.00012 C25.0050803,17.6394841 24.8156047,17.3040386 24.5041072,17.1222323 C24.1926096,16.9404259 23.8073504,16.9404259 23.4958528,17.1222323 C23.1843553,17.3040386 22.9948797,17.6394841 22.99998,18.00012 C22.99998,20.48742 22.99138,22.34252 22.84178,23.64852 C22.69222,24.95462 22.41672,25.63062 22.02147,26.02552 C21.62621,26.42034 20.95027,26.6951 19.64447,26.84388 C18.33867,26.99266 16.48467,27.00013 13.99997,27.00013 C11.51497,27.00013 9.66147,26.993412 8.35547,26.84583 C7.04947,26.69825 6.37317,26.42494 5.97847,26.03138 C5.58377,25.63782 5.30773,24.96128 5.15816,23.65438 C5.00859,22.34748 4.99996,20.49158 4.99996,18.00008 C4.99996,15.50788 5.00549,13.65138 5.1523,12.34388 C5.29911,11.03638 5.57303,10.36108 5.9648,9.96888 C6.35657,9.57668 7.0319,9.30202 8.3398,9.15443 C9.6477,9.00684 11.5052,9.00013 14,9.00013 C14.3606359,9.00523029 14.6960814,8.8157547 14.8778877,8.50425715 C15.0596941,8.1927596 15.0596941,7.8075004 14.8778877,7.49600285 C14.6960814,7.1845053 14.3606359,6.99502971 14,7.00013 L14,7 Z" id="Shape" fill="#000000"></path>
        </g>
    </g>
</svg>