<?xml version="1.0" encoding="UTF-8"?>
<svg width="297px" height="100px" viewBox="0 0 297 100" version="1.1" xmlns="http://www.w3.org/2000/svg" xmlns:xlink="http://www.w3.org/1999/xlink">
    <defs></defs>
    <g id="Page-1" stroke="none" stroke-width="1" fill="none" fill-rule="evenodd">
        <g id="Invision-01">
            <path d="M90.541874,0.517073171 L9.02554521,0.517073171 C4.0408274,0.517073171 0,4.55447154 0,9.53495935 L0,90.9821138 C0,95.9626016 4.0408274,100 9.02554521,100 L90.541874,100 C95.5265918,100 99.5674192,95.9626016 99.5674192,90.9821138 L99.5674192,9.53495935 C99.5674192,4.55447154 95.5265918,0.517073171 90.541874,0.517073171" id="Fill-1" fill="#FF3366"></path>
            <path d="M193.832778,77.7479675 L203.36363,77.7479675 L203.36363,36.201626 L193.832778,36.201626 L193.832778,77.7479675 Z M282.19394,35.3349593 C275.735614,35.3349593 271.877055,38.7186992 269.199173,42.6528455 L269.199173,36.201626 L259.670762,36.201626 L259.670762,77.7479675 L269.199173,77.7479675 L269.199173,54.297561 C269.199173,47.8455285 273.058545,43.9902439 278.571353,43.9902439 C284.242833,43.9902439 287.470775,47.6878049 287.470775,54.1398374 L287.470775,77.7479675 L297,77.7479675 L297,51.3081301 C297,41.6300813 291.565307,35.3349593 282.19394,35.3349593 Z M231.792633,70.4300813 C224.388789,70.4300813 219.112767,64.3699187 219.112767,56.9731707 C219.112767,49.6569106 223.994959,43.6747967 231.634775,43.6747967 C239.115921,43.6747967 244.39357,49.7333333 244.39357,57.1317073 C244.39357,64.4487805 239.509751,70.4300813 231.792633,70.4300813 Z M231.792633,35.3349593 C219.034652,35.3349593 209.582729,45.1691057 209.582729,57.1317073 C209.582729,69.0121951 218.95491,78.6910569 231.634775,78.6910569 C244.473312,78.6910569 253.924422,68.8552846 253.924422,56.9731707 C253.924422,45.0138211 244.5498,35.3349593 231.792633,35.3349593 Z M113.823419,66.7300813 L102.640759,36.201626 L92.401989,36.201626 L109.492101,78.0609756 L118.076622,78.0609756 L135.086992,36.201626 L125.085822,36.201626 L113.823419,66.7300813 Z M174.619726,53.197561 C169.735907,51.6211382 165.245918,50.3634146 165.245918,47.3747967 L165.245918,47.2162602 C165.245918,44.7772358 167.372112,43.0463415 171.073627,43.0463415 C172.879225,43.0463415 174.899638,43.4593496 176.988403,44.1918699 L176.986775,44.1869919 C176.986775,44.1869919 177.007932,44.196748 177.046989,44.2146341 C177.226816,44.2780488 177.409085,44.3495935 177.591353,44.4178862 C179.098323,44.8943089 183.164375,45.5308943 186.59086,40.2146341 C182.178986,37.301626 176.510762,35.4910569 171.3096,35.4910569 C163.041608,35.4910569 156.505167,40.2910569 156.505167,48.1609756 L156.505167,48.3186992 C156.505167,56.2658537 163.355696,58.7837398 169.499121,60.5154472 C174.38294,62.0097561 178.794,63.1113821 178.794,66.3373984 L178.794,66.4934959 C178.794,69.2487805 176.430205,70.9796748 172.33486,70.9796748 C169.612225,70.9796748 166.630833,70.2617886 163.659205,68.8626016 C162.804008,68.502439 158.356332,66.9829268 154.553104,72.3869919 C159.734737,76.4300813 166.226425,78.5341463 172.099701,78.5341463 C180.759896,78.5341463 187.534751,74.2089431 187.534751,65.4715447 L187.534751,65.3146341 C187.534751,57.8406504 180.683408,55.0853659 174.619726,53.197561 Z M139.809699,77.7479675 L149.338923,77.7479675 L149.338923,36.201626 L139.809699,36.201626 L139.809699,77.7479675 Z" id="Fill-2" fill="#FF3366"></path>
            <path d="M33.2753918,31.8170732 C36.5855178,31.8170732 39.357789,29.2252033 39.357789,25.8276423 C39.357789,22.4333333 36.5855178,19.8414634 33.2753918,19.8414634 C29.9660795,19.8414634 27.1938082,22.4333333 27.1938082,25.8276423 C27.1938082,29.2252033 29.9660795,31.8170732 33.2753918,31.8170732" id="Fill-3" fill="#FFFFFE"></path>
            <path d="M20.6638767,63.8853659 C20.306663,65.404878 20.1268356,67.0455285 20.1268356,68.3837398 C20.1268356,73.6577236 22.9894274,77.1585366 29.0718247,77.1585366 C34.1167562,77.1585366 38.2064055,74.1650407 41.1503671,69.3325203 L39.3520932,76.5422764 L49.3703507,76.5422764 L55.0947205,53.599187 C56.5260164,47.7902439 59.2991014,44.7756098 63.5034822,44.7756098 C66.8127945,44.7756098 68.8698247,46.8317073 68.8698247,50.2260163 C68.8698247,51.2097561 68.7803178,52.2813008 68.4231041,53.4439024 L65.4701918,63.9894309 C65.0234712,65.5089431 64.8452712,67.0292683 64.8452712,68.4577236 C64.8452712,73.4642276 67.7957425,77.1268293 73.9676466,77.1268293 C79.2452959,77.1268293 83.448863,73.7317073 85.7752274,65.598374 L81.8393671,64.0804878 C79.8718438,69.5292683 78.1720274,70.5146341 76.8310521,70.5146341 C75.4884493,70.5146341 74.7723945,69.6211382 74.7723945,67.8349593 C74.7723945,67.0308943 74.9522219,66.1382114 75.2199288,65.0634146 L78.0825205,54.7894309 C78.7985753,52.3764228 79.0670959,50.2373984 79.0670959,48.2715447 C79.0670959,40.5861789 74.4151808,36.5747967 68.7803178,36.5747967 C63.5034822,36.5747967 58.136326,41.3308943 55.4527479,46.3357724 L57.4202712,37.3520325 L42.1251781,37.3520325 L39.9786411,45.2650407 L47.1343068,45.2650407 L42.7281288,62.8926829 C39.2674685,70.5788618 32.9108548,70.703252 32.1134301,70.5243902 C30.8033753,70.2292683 29.9660795,69.7325203 29.9660795,68.0325203 C29.9660795,67.0504065 30.1442795,65.6414634 30.5918137,63.9422764 L37.3007589,37.3520325 L20.306663,37.3520325 L18.1593123,45.2650407 L25.2254712,45.2650407 L20.6638767,63.8853659" id="Fill-4" fill="#FFFFFE"></path>
        </g>
    </g>
</svg>