<?xml version="1.0" encoding="UTF-8"?>
<svg width="34px" height="34px" viewBox="0 0 34 34" version="1.1" xmlns="http://www.w3.org/2000/svg" xmlns:xlink="http://www.w3.org/1999/xlink">
    <!-- Generator: Sketch 44.1 (41455) - http://www.bohemiancoding.com/sketch -->
    <title>Ps</title>
    <desc>Created with Sketch.</desc>
    <defs></defs>
    <g id="Page-1" stroke="none" stroke-width="1" fill="none" fill-rule="evenodd">
        <g id="Design-page---MOBILE" transform="translate(-20.000000, -166.000000)">
            <g id="Logos" transform="translate(20.000000, 166.000000)">
                <g id="Ps">
                    <path d="M30.7159091,34 L3.28409091,34 C1.47320455,34 4.11791813e-15,34 4.11791813e-15,34 L4.01068068e-15,3.28409091 C4.01068068e-15,1.47320455 0,0 0,0 L34,0 C34,0 34,1.47320455 34,3.28409091 L34,34 L30.7159091,34 Z M3.28409091,1.93181818 C2.53840909,1.93181818 1.93181818,1.93181818 1.93181818,1.93181818 L1.93181818,32.0681818 L3.28409091,32.0681818 L32.0681818,32.0681818 C32.0681818,32.0681818 32.0681818,31.4613977 32.0681818,30.7159091 L32.0681818,3.28409091 C32.0681818,2.53860227 32.0681818,1.93181818 32.0681818,1.93181818 L3.28409091,1.93181818 Z" id="Shape" fill="#29EAFF" fill-rule="nonzero"></path>
                    <rect id="Rectangle" fill="#022833" x="1.94285714" y="1.94285714" width="30.1142857" height="30.1142857"></rect>
                    <path d="M9.71428571,9.96561122 C10.5007904,9.83031205 11.5307774,9.71428571 12.8416185,9.71428571 C14.4519995,9.71428571 15.6318509,10.100521 16.3807951,10.796095 C17.0549959,11.4139937 17.4857143,12.3603092 17.4857143,13.5192098 C17.4857143,14.697578 17.1486139,15.624426 16.5119736,16.3005325 C15.6318509,17.246848 14.2462664,17.7298368 12.6543824,17.7298368 C12.1674177,17.7298368 11.7180134,17.7103693 11.3435413,17.6138105 L11.3435413,22.8285714 L9.71428571,22.8285714 L9.71428571,9.96561122 L9.71428571,9.96561122 Z M11.3435413,16.242714 C11.6993276,16.3388835 12.1487319,16.3776238 12.6917542,16.3776238 C14.6579214,16.3776238 15.8564587,15.3734898 15.8564587,13.615574 C15.8564587,11.8771257 14.6579214,11.0468365 12.8789902,11.0468365 C12.1674177,11.0468365 11.6243954,11.1050444 11.3435413,11.1821357 L11.3435413,16.242714 L11.3435413,16.242714 Z" id="Shape" fill="#24D4FD" fill-rule="nonzero"></path>
                    <path d="M19.3623863,20.9047931 C19.9019535,21.2126907 20.8211713,21.5587847 21.7003094,21.5587847 C22.9590981,21.5587847 23.5586844,20.9627662 23.5586844,20.1738271 C23.5586844,19.3660806 23.059197,18.9426245 21.7802677,18.4811659 C20.0219916,17.8653706 19.2026711,16.9614546 19.2026711,15.8458105 C19.2026711,14.3454883 20.4816005,13.1142857 22.539569,13.1142857 C23.5186046,13.1142857 24.3780048,13.3642102 24.8974314,13.691109 L24.4779023,14.9223116 C24.0982516,14.6917762 23.3989693,14.3644896 22.4996906,14.3644896 C21.460636,14.3644896 20.9011296,14.9417006 20.9011296,15.6342764 C20.9011296,16.4038265 21.460636,16.7499204 22.7194248,17.2307681 C24.3780048,17.8271743 25.2571429,18.6349208 25.2571429,20.0202661 C25.2571429,21.6743432 23.9183959,22.8285714 21.660431,22.8285714 C20.6014372,22.8285714 19.6222002,22.559258 18.9428571,22.1745799 L19.3623863,20.9047931 Z" id="Shape" fill="#24D4FD" fill-rule="nonzero"></path>
                </g>
            </g>
        </g>
    </g>
</svg>