<?xml version="1.0" encoding="UTF-8"?>
<svg width="45px" height="45px" viewBox="0 0 45 45" version="1.1" xmlns="http://www.w3.org/2000/svg" xmlns:xlink="http://www.w3.org/1999/xlink">
    <defs>
        <linearGradient x1="0%" y1="0%" x2="100%" y2="93.0957031%" id="linearGradient-1">
            <stop stop-color="#FFD600" offset="0%"></stop>
            <stop stop-color="#FDAD00" offset="100%"></stop>
        </linearGradient>
        <rect id="path-2" x="0" y="0" width="45" height="45"></rect>
    </defs>
    <g id="Page-1" stroke="none" stroke-width="1" fill="none" fill-rule="evenodd">
        <g id="Group">
            <mask id="mask-3" fill="white">
                <use xlink:href="#path-2"></use>
            </mask>
            <rect stroke="#F0B700" stroke-width="1.6875" x="0.84375" y="0.84375" width="43.3125" height="43.3125" fill="url(#linearGradient-1)"></rect>
            <path d="M12.7295694,10.67632 L7.21706946,18.1575699 C7.11902571,18.2992411 7.12957821,18.5065111 7.24148196,18.6374724 L22.2039817,36.3562339 C22.3512442,36.5231445 22.6473442,36.5231445 22.7946067,36.3562339 L37.7571064,18.6374724 C37.8690102,18.5065111 37.8795627,18.2992411 37.7815189,18.1575699 L32.269019,10.67632 C32.1955453,10.5767406 32.0728528,10.5154338 31.9490972,10.5163788 L13.0490975,10.5163788 C12.8956925,10.5029913 12.7985544,10.58938 12.7295694,10.67632 L12.7295694,10.67632 Z M13.6278312,11.3038788 L21.5889442,11.3038788 L15.9041787,17.2962812 L13.6278312,11.3038788 Z M23.4100379,11.3038788 L31.3711509,11.3038788 L29.0948035,17.2962812 L23.4100379,11.3038788 Z M22.4994911,11.4884688 L28.6764441,17.9976286 L16.3225381,17.9976286 L22.4994911,11.4884688 Z M12.9387687,11.7222381 L15.3012687,17.9361249 L15.2397256,17.9976286 L8.32449131,17.9976286 L12.9387687,11.7222381 Z M32.0602134,11.7222381 L36.6744908,17.9976286 L29.7592566,17.9976286 L29.6977135,17.9361249 L32.0602134,11.7222381 Z M8.38599506,18.7851286 L15.6334756,18.7851286 L21.5889442,34.4120933 L8.38599506,18.7851286 Z M16.4701943,18.7851286 L28.5287878,18.7851286 L22.4994911,34.6089683 L16.4701943,18.7851286 Z M29.3655066,18.7851286 L36.6129871,18.7851286 L23.4100379,34.4244177 L29.3655066,18.7851286 Z" id="Shape" fill="#000000" fill-rule="nonzero" mask="url(#mask-3)"></path>
        </g>
    </g>
</svg>