<?xml version="1.0" encoding="UTF-8"?>
<svg width="53px" height="42px" viewBox="0 0 53 42" version="1.1" xmlns="http://www.w3.org/2000/svg" xmlns:xlink="http://www.w3.org/1999/xlink">
    <!-- Generator: Sketch 48.2 (47327) - http://www.bohemiancoding.com/sketch -->
    <title>noun_13048_cc</title>
    <desc>Created with Sketch.</desc>
    <defs></defs>
    <g id="Page-1" stroke="none" stroke-width="1" fill="none" fill-rule="evenodd">
        <g id="noun_13048_cc" fill="#000000" fill-rule="nonzero">
            <g id="Group">
                <path d="M26.595,32.113 C31.283,32.113 35.096,28.3 35.096,23.613 C35.096,18.926 31.283,15.114 26.595,15.114 C21.908,15.114 18.096,18.926 18.096,23.613 C18.096,28.3 21.908,32.113 26.595,32.113 Z M26.595,17.114 C30.18,17.114 33.096,20.029 33.096,23.613 C33.096,27.197 30.18,30.113 26.595,30.113 C23.011,30.113 20.096,27.197 20.096,23.613 C20.096,20.029 23.011,17.114 26.595,17.114 Z" id="Shape"></path>
                <path d="M43.595,3.989 L34.995,3.989 L18.197,3.99 L16.072,3.99 C16.02,1.967 14.367,0.335 12.332,0.335 C10.277,0.335 8.606,1.998 8.586,4.047 C3.959,4.552 0.346,8.481 0.346,13.239 L0.346,32.239 C0.346,37.34 4.495,41.489 9.596,41.489 L43.596,41.489 C48.697,41.489 52.846,37.34 52.846,32.239 L52.846,13.239 C52.845,8.139 48.695,3.989 43.595,3.989 Z M12.331,2.834 C12.986,2.834 13.511,3.346 13.561,3.989 L11.1,3.989 C11.151,3.347 11.676,2.834 12.331,2.834 Z M50.345,32.239 C50.345,35.961 47.317,38.989 43.595,38.989 L9.595,38.989 C5.873,38.989 2.845,35.961 2.845,32.239 L2.845,17.114 L16.23,17.114 C15.043,19.001 14.345,21.224 14.345,23.613 C14.345,30.368 19.84,35.863 26.594,35.863 C33.349,35.863 38.845,30.368 38.845,23.613 C38.845,21.224 38.147,19.001 36.959,17.114 L50.344,17.114 L50.344,32.239 L50.345,32.239 Z M16.846,23.613 C16.846,18.237 21.219,13.864 26.595,13.864 C31.972,13.864 36.346,18.237 36.346,23.613 C36.346,28.989 31.972,33.363 26.595,33.363 C21.219,33.363 16.846,28.989 16.846,23.613 Z M50.345,15.114 L35.397,15.114 C33.168,12.806 30.048,11.364 26.594,11.364 C23.14,11.364 20.022,12.806 17.793,15.114 L2.845,15.114 L2.845,13.239 C2.845,9.517 5.873,6.489 9.595,6.489 L43.595,6.489 C47.317,6.489 50.345,9.517 50.345,13.239 L50.345,15.114 Z" id="Shape"></path>
                <path d="M44.396,9.156 L42.396,9.156 C41.292,9.156 40.396,10.052 40.396,11.156 C40.396,12.26 41.292,13.156 42.396,13.156 L44.396,13.156 C45.5,13.156 46.396,12.26 46.396,11.156 C46.396,10.052 45.5,9.156 44.396,9.156 Z" id="Shape"></path>
                <path d="M23.469,27.511 C23.664,27.706 23.92,27.804 24.176,27.804 C24.432,27.804 24.688,27.706 24.883,27.511 L30.317,22.078 C30.708,21.687 30.708,21.055 30.317,20.664 C29.926,20.273 29.294,20.273 28.903,20.664 L23.469,26.097 C23.078,26.487 23.078,27.12 23.469,27.511 Z" id="Shape"></path>
                <path d="M22.863,24.087 C23.119,24.087 23.375,23.989 23.57,23.794 L26.302,21.062 C26.693,20.671 26.693,20.039 26.302,19.648 C25.911,19.257 25.279,19.257 24.888,19.648 L22.156,22.38 C21.765,22.771 21.765,23.403 22.156,23.794 C22.352,23.989 22.607,24.087 22.863,24.087 Z" id="Shape"></path>
            </g>
        </g>
    </g>
</svg>