<?xml version="1.0" encoding="UTF-8"?>
<svg width="20px" height="14px" viewBox="0 0 20 14" version="1.1" xmlns="http://www.w3.org/2000/svg" xmlns:xlink="http://www.w3.org/1999/xlink">
    <defs></defs>
    <g id="Page-1" stroke="none" stroke-width="1" fill="none" fill-rule="evenodd">
        <g id="marvel2" fill="#1FB6FF" fill-rule="nonzero">
            <path d="M17.542,2.673 C17.542,4.166 13.628,7.883 13.628,9.663 C13.628,9.98 13.785,10.138 14.099,10.138 C15.229,10.138 17.191,7.309 17.833,6.368 C18.652,5.166 19.319,5.163 19.753,5.6 C20.328,6.182 19.77,7.348 19.373,8.07 C18.143,10.305 15.248,13.651 12.722,13.651 C12.045,13.651 11.489,13.425 11.055,12.974 C9.447,11.308 11.006,8.342 12.288,6.405 C9.567,8.519 8.454,11.671 7.503,12.681 C6.733,13.496 5.155,12.984 5.255,11.601 C5.314,10.788 5.555,9.951 6.431,8.414 C6.801,7.69 7.299,6.682 7.611,6.15 C3.495,9.473 3.157,12.623 2.157,13.633 C1.373,14.425 2.84217094e-14,13.899 2.84217094e-14,12.407 C2.84217094e-14,9.864 3.597,1.804 5.618,0.275 C6.465,-0.367 7.575,0.195 7.575,1.135 C7.575,1.889 6.281,3.785 5.364,5.637 C7.308,3.282 8.704,1.713 9.804,1.136 C11.005,0.509 11.924,1.187 11.924,2.087 C11.924,2.977 11.099,4.135 10.113,6.003 C11.54,4.441 14.543,1.173 15.948,1.173 C16.765,1.172 17.542,1.875 17.542,2.673 Z" id="marvelapp-[#151]"></path>
        </g>
    </g>
</svg>