<?xml version="1.0" encoding="UTF-8"?>
<svg width="34px" height="34px" viewBox="0 0 34 34" version="1.1" xmlns="http://www.w3.org/2000/svg" xmlns:xlink="http://www.w3.org/1999/xlink">
    <!-- Generator: Sketch 44.1 (41455) - http://www.bohemiancoding.com/sketch -->
    <title>adobe-illustrator-cc</title>
    <desc>Created with Sketch.</desc>
    <defs>
        <radialGradient cx="32.9351254%" cy="22.4100935%" fx="32.9351254%" fy="22.4100935%" r="0.139277297%" gradientTransform="translate(0.329351,0.224101),scale(0.996126,1.000000),translate(-0.329351,-0.224101)" id="radialGradient-1">
            <stop stop-color="#423325" stop-opacity="0.98" offset="0%"></stop>
            <stop stop-color="#1C0A00" offset="100%"></stop>
        </radialGradient>
    </defs>
    <g id="Page-1" stroke="none" stroke-width="1" fill="none" fill-rule="evenodd">
        <g id="Design-page---MOBILE" transform="translate(-74.000000, -166.000000)" fill-rule="nonzero">
            <g id="Logos" transform="translate(20.000000, 166.000000)">
                <g id="adobe-illustrator-cc" transform="translate(54.000000, 0.000000)">
                    <polygon id="Shape" fill="url(#radialGradient-1)" points="1.41493624 1.49255326 32.5439899 1.49255326 32.5439899 32.5010206 1.41493624 32.5010206"></polygon>
                    <path d="M1.41493624,1.49255326 L32.5439899,1.49255326 L32.5439899,32.5010206 L1.41493624,32.5010206 L1.41493624,1.49255326 Z M0,33.9500515 L33.9589262,33.9500515 L33.9589262,0.043580756 L0,0.043580756 L0,33.9500515 Z M22.2430738,12.1281856 C22.2430738,12.0122818 22.2855168,11.9542715 22.4129027,11.9542715 L24.6343691,11.9542715 C24.7474933,11.9542715 24.8041409,11.9977354 24.8041409,12.1281856 L24.8041409,23.5607732 C24.8041409,23.6766186 24.7758456,23.7346289 24.6343691,23.7346289 L22.441198,23.7346289 C22.2997215,23.7346289 22.2572215,23.662189 22.2572215,23.5462852 L22.2572215,12.1281856 L22.2430738,12.1281856 Z M22.0874497,8.83894845 C22.0874497,7.91160137 22.724151,7.361 23.5307383,7.361 C24.3938591,7.361 24.9739698,7.95506529 24.9739698,8.83894845 C24.9739698,9.79527148 24.3655638,10.3168969 23.502443,10.3168969 C22.6817081,10.3169553 22.0874497,9.79527148 22.0874497,8.83894845 Z M15.720151,16.8953711 C15.3240168,15.2869725 14.3901577,11.7804158 14.0363523,10.0850893 L14.008057,10.0850893 C13.7108993,11.7804158 12.9610168,14.6493849 12.3667584,16.8953711 L15.720151,16.8953711 L15.720151,16.8953711 Z M11.7865906,19.2427732 L10.668755,23.5897491 C10.6404597,23.7055945 10.5980168,23.7345704 10.4565403,23.7345704 L8.37655034,23.7345704 C8.23507383,23.7345704 8.20672148,23.6911065 8.23507383,23.5172509 L12.2535201,9.11421993 C12.3242584,8.85343643 12.3667013,8.62157045 12.3949966,7.91160137 C12.3949966,7.81018557 12.4374396,7.76672165 12.5081779,7.76672165 L15.4795839,7.76672165 C15.5786174,7.76672165 15.6210604,7.79569759 15.6494128,7.91160137 L20.1489362,23.5462268 C20.1772315,23.6620722 20.1489362,23.7345704 20.035755,23.7345704 L17.6869027,23.7345704 C17.5737215,23.7345704 17.5029262,23.7055945 17.4746879,23.6042371 L16.3144094,19.2427732 L11.7865906,19.2427732 L11.7865906,19.2427732 Z" id="Shape" fill="#FF7F18"></path>
                </g>
            </g>
        </g>
    </g>
</svg>